{
    "asset" : {
        "generator" : "Khronos glTF Blender I/O v1.7.33",
        "version" : "2.0"
    },
    "scene" : 0,
    "scenes" : [
        {
            "name" : "Scene",
            "nodes" : [
                3
            ]
        }
    ],
    "nodes" : [
        {
            "mesh" : 0,
            "name" : "c_hook",
            "scale" : [
                0.773587703704834,
                0.773587703704834,
                0.773587703704834
            ],
            "translation" : [
                0.03114836849272251,
                -0.02164638042449951,
                0
            ]
        },
        {
            "mesh" : 1,
            "name" : "g_g",
            "rotation" : [
                0,
                0.011269129812717438,
                0,
                0.9999365210533142
            ],
            "translation" : [
                0.025103658437728882,
                0.31081050634384155,
                0.004652976989746094
            ]
        },
        {
            "name" : "interact",
            "translation" : [
                0.024509863927960396,
                0.3769914507865906,
                0.01131296157836914
            ]
        },
        {
            "children" : [
                0,
                1,
                2
            ],
            "name" : "rp_cable_pku",
            "rotation" : [
                -0.7071067094802856,
                0,
                0,
                0.7071068286895752
            ],
            "translation" : [
                0,
                -0.812627911567688,
                2
            ]
        }
    ],
    "materials" : [
        {
            "name" : "mtr_rubber_black",
            "pbrMetallicRoughness" : {}
        },
        {
            "name" : "mtr_claw",
            "pbrMetallicRoughness" : {}
        },
        {
            "name" : "mtr_rubber_red",
            "pbrMetallicRoughness" : {}
        }
    ],
    "meshes" : [
        {
            "name" : "c_hook",
            "primitives" : [
                {
                    "attributes" : {
                        "POSITION" : 0,
                        "NORMAL" : 1,
                        "TEXCOORD_0" : 2
                    },
                    "indices" : 3
                }
            ]
        },
        {
            "name" : "g_cable",
            "primitives" : [
                {
                    "attributes" : {
                        "POSITION" : 4,
                        "NORMAL" : 5,
                        "TEXCOORD_0" : 6
                    },
                    "indices" : 7,
                    "material" : 0
                },
                {
                    "attributes" : {
                        "POSITION" : 8,
                        "NORMAL" : 9,
                        "TEXCOORD_0" : 10
                    },
                    "indices" : 11,
                    "material" : 1
                },
                {
                    "attributes" : {
                        "POSITION" : 12,
                        "NORMAL" : 13,
                        "TEXCOORD_0" : 14
                    },
                    "indices" : 15,
                    "material" : 2
                }
            ]
        }
    ],
    "accessors" : [
        {
            "bufferView" : 0,
            "componentType" : 5126,
            "count" : 24,
            "max" : [
                0.032127879559993744,
                0.03212786465883255,
                0.03212787210941315
            ],
            "min" : [
                -0.03212787210941315,
                -0.03212786465883255,
                -0.03212785720825195
            ],
            "type" : "VEC3"
        },
        {
            "bufferView" : 1,
            "componentType" : 5126,
            "count" : 24,
            "type" : "VEC3"
        },
        {
            "bufferView" : 2,
            "componentType" : 5126,
            "count" : 24,
            "type" : "VEC2"
        },
        {
            "bufferView" : 3,
            "componentType" : 5123,
            "count" : 36,
            "type" : "SCALAR"
        },
        {
            "bufferView" : 4,
            "componentType" : 5126,
            "count" : 1367,
            "max" : [
                0.01961982436478138,
                0.4639955163002014,
                0.5834121108055115
            ],
            "min" : [
                -0.030666474252939224,
                -0.3396332859992981,
                -0.5554307699203491
            ],
            "type" : "VEC3"
        },
        {
            "bufferView" : 5,
            "componentType" : 5126,
            "count" : 1367,
            "type" : "VEC3"
        },
        {
            "bufferView" : 6,
            "componentType" : 5126,
            "count" : 1367,
            "type" : "VEC2"
        },
        {
            "bufferView" : 7,
            "componentType" : 5123,
            "count" : 3966,
            "type" : "SCALAR"
        },
        {
            "bufferView" : 8,
            "componentType" : 5126,
            "count" : 4002,
            "max" : [
                0.025536872446537018,
                0.2220507264137268,
                0.5934267640113831
            ],
            "min" : [
                -0.030666474252939224,
                -0.3477964401245117,
                -0.5654452443122864
            ],
            "type" : "VEC3"
        },
        {
            "bufferView" : 9,
            "componentType" : 5126,
            "count" : 4002,
            "type" : "VEC3"
        },
        {
            "bufferView" : 10,
            "componentType" : 5126,
            "count" : 4002,
            "type" : "VEC2"
        },
        {
            "bufferView" : 11,
            "componentType" : 5123,
            "count" : 4014,
            "type" : "SCALAR"
        },
        {
            "bufferView" : 12,
            "componentType" : 5126,
            "count" : 720,
            "max" : [
                0.026938464492559433,
                0.15699580311775208,
                0.5497937202453613
            ],
            "min" : [
                -0.013424884527921677,
                0.04394209384918213,
                -0.5191147327423096
            ],
            "type" : "VEC3"
        },
        {
            "bufferView" : 13,
            "componentType" : 5126,
            "count" : 720,
            "type" : "VEC3"
        },
        {
            "bufferView" : 14,
            "componentType" : 5126,
            "count" : 720,
            "type" : "VEC2"
        },
        {
            "bufferView" : 15,
            "componentType" : 5123,
            "count" : 720,
            "type" : "SCALAR"
        }
    ],
    "bufferViews" : [
        {
            "buffer" : 0,
            "byteLength" : 288,
            "byteOffset" : 0
        },
        {
            "buffer" : 0,
            "byteLength" : 288,
            "byteOffset" : 288
        },
        {
            "buffer" : 0,
            "byteLength" : 192,
            "byteOffset" : 576
        },
        {
            "buffer" : 0,
            "byteLength" : 72,
            "byteOffset" : 768
        },
        {
            "buffer" : 0,
            "byteLength" : 16404,
            "byteOffset" : 840
        },
        {
            "buffer" : 0,
            "byteLength" : 16404,
            "byteOffset" : 17244
        },
        {
            "buffer" : 0,
            "byteLength" : 10936,
            "byteOffset" : 33648
        },
        {
            "buffer" : 0,
            "byteLength" : 7932,
            "byteOffset" : 44584
        },
        {
            "buffer" : 0,
            "byteLength" : 48024,
            "byteOffset" : 52516
        },
        {
            "buffer" : 0,
            "byteLength" : 48024,
            "byteOffset" : 100540
        },
        {
            "buffer" : 0,
            "byteLength" : 32016,
            "byteOffset" : 148564
        },
        {
            "buffer" : 0,
            "byteLength" : 8028,
            "byteOffset" : 180580
        },
        {
            "buffer" : 0,
            "byteLength" : 8640,
            "byteOffset" : 188608
        },
        {
            "buffer" : 0,
            "byteLength" : 8640,
            "byteOffset" : 197248
        },
        {
            "buffer" : 0,
            "byteLength" : 5760,
            "byteOffset" : 205888
        },
        {
            "buffer" : 0,
            "byteLength" : 1440,
            "byteOffset" : 211648
        }
    ],
    "buffers" : [
        {
            "byteLength" : 213088,
            "uri" : "data:application/octet-stream;base64,"
        }
    ]
}
